PathFileType	4	(X/Y/Z)	s03c0001.trc
DataRate	CameraRate	NumFrames	NumMarkers	Units	OrigDataRate	OrigDataStartFrame	OrigNumFrames
200	200	7	49	mm	200	1500	2000
Frame#	Time	racr			lacr			c7			jug			rlel			rdr			llel			ldr			s2			lic			ric			lasi			rasi			rpsi			lpsi			rgt			lgt			rth1			rth2			rth3			rth4			rlfc			rmfc			rsh1			rsh2			rsh3			rsh4			rlmal			rmmal			rcal			rtoe			rmt5			rmt1			lth1			lth2			lth4			lth3			llfc			lmfc			lsh1			lsh2			lsh3			lsh4			llmal			lmmal			lcal			ltoe			lmt1			lmt5			
		X1	Y1	Z1	X2	Y2	Z2	X3	Y3	Z3	X4	Y4	Z4	X5	Y5	Z5	X6	Y6	Z6	X7	Y7	Z7	X8	Y8	Z8	X9	Y9	Z9	X10	Y10	Z10	X11	Y11	Z11	X12	Y12	Z12	X13	Y13	Z13	X14	Y14	Z14	X15	Y15	Z15	X16	Y16	Z16	X17	Y17	Z17	X18	Y18	Z18	X19	Y19	Z19	X20	Y20	Z20	X21	Y21	Z21	X22	Y22	Z22	X23	Y23	Z23	X24	Y24	Z24	X25	Y25	Z25	X26	Y26	Z26	X27	Y27	Z27	X28	Y28	Z28	X29	Y29	Z29	X30	Y30	Z30	X31	Y31	Z31	X32	Y32	Z32	X33	Y33	Z33	X34	Y34	Z34	X35	Y35	Z35	X36	Y36	Z36	X37	Y37	Z37	X38	Y38	Z38	X39	Y39	Z39	X40	Y40	Z40	X41	Y41	Z41	X42	Y42	Z42	X43	Y43	Z43	X44	Y44	Z44	X45	Y45	Z45	X46	Y46	Z46	X47	Y47	Z47	X48	Y48	Z48	X49	Y49	Z49	
1500	7.5000	261.117645	1571.385742	581.868530	255.859146	1587.402710	201.580353	195.052856	1608.103760	394.907288	360.686829	1554.759888	393.176971	186.070435	1299.843872	689.699341	279.759125	1119.715576	885.092224	181.414032	1315.487915	98.204185	262.169922	1123.730225	-106.461876	158.401047	1067.193970	373.995453	293.616394	1164.872437	194.578369	285.088623	1150.889893	566.761169	356.406738	1103.777954	237.348618	356.086975	1100.005981	520.624573	159.578659	1107.948120	423.659393	163.834671	1116.177246	340.759216	267.956360	1008.884583	561.441956	282.627502	1015.816589	187.108307	281.458038	870.319885	576.664917	312.348877	786.895691	570.980713	302.462799	703.640076	556.358093	348.455231	792.404053	566.384338	297.010834	577.485107	524.532043	328.411072	556.917114	418.251984	242.720444	412.667114	552.579102	253.874222	323.565704	547.868286	218.468475	243.222610	542.296082	287.969269	320.214600	530.476562	208.738876	104.042809	531.133423	248.753830	122.021416	450.161682	165.151779	56.063030	483.452271	468.452820	91.145576	503.522125	353.434052	43.339630	563.440918	378.641968	81.352310	454.114594	293.685455	865.949768	174.414246	317.173523	782.877808	182.064255	353.207733	784.985962	184.189651	295.774567	698.205994	195.729111	309.847412	577.226685	221.190979	331.232147	559.223389	334.499695	250.976974	413.408691	184.698776	263.719391	329.315552	193.184540	228.991684	244.669861	196.574020	298.016785	325.283081	211.380798	220.592056	110.744286	206.054291	259.066681	124.895882	292.797638	172.529221	55.045959	258.038666	479.397278	92.536880	234.347061	389.111084	73.321678	285.960297	358.226227	50.637836	172.424835	
1501	7.5050	261.102112	1571.368652	581.875244	255.863647	1587.400879	201.599823	195.050690	1608.099487	394.933746	360.686829	1554.759888	393.177002	186.054123	1299.842285	689.708679	279.729797	1119.678345	885.082764	181.410034	1315.508301	98.211769	262.170044	1123.740234	-106.453644	158.412628	1067.195190	374.012848	293.615021	1164.881348	194.583572	285.082275	1150.884277	566.763245	356.448730	1103.786133	237.379471	356.085052	1100.007935	520.644226	159.573090	1107.937500	423.674530	163.828934	1116.169434	340.751556	267.965759	1008.872620	561.451111	282.621185	1015.818726	187.122940	281.478912	870.317932	576.673218	312.360168	786.900452	570.973877	302.472992	703.642212	556.343445	348.469421	792.403442	566.395874	297.037354	577.466003	524.522217	328.395020	556.928101	418.254272	242.708664	412.670105	552.584534	253.871597	323.571014	547.865051	218.471420	243.232971	542.296631	287.969269	320.214600	530.476562	208.749771	104.032722	531.141785	248.735443	122.021919	450.147583	165.155289	56.073753	483.448425	468.469208	91.156746	503.555298	353.449646	43.335892	563.452576	378.647766	81.341347	454.097839	293.681915	865.948730	174.424850	317.169678	782.886780	182.080429	353.205414	784.968262	184.189301	295.783325	698.239197	195.706512	309.853912	577.232117	221.193848	331.247894	559.221497	334.515015	250.989807	413.409210	184.688263	263.725067	329.304596	193.179169	228.991684	244.669861	196.574020	298.022858	325.275665	211.392853	220.606049	110.748276	206.043945	259.063660	124.916710	292.804901	172.514175	55.052406	258.048462	479.418610	92.495033	234.353195	389.096558	73.326057	285.939850	358.227325	50.636993	172.423325	
1502	7.5100	261.110779	1571.370483	581.889526	255.868561	1587.400391	201.620621	195.096817	1608.358765	394.909698	360.700836	1554.738037	393.193512	186.039825	1299.822510	689.705933	279.709106	1119.674316	885.101379	181.425217	1315.519531	98.205063	262.170258	1123.751953	-106.459595	158.412567	1067.182617	374.015869	293.609497	1164.874390	194.602173	285.080231	1150.889038	566.790588	356.437134	1103.791260	237.358734	356.103363	1100.009888	520.640442	159.582809	1107.937622	423.681458	163.846893	1116.170166	340.766510	267.975311	1008.865173	561.458069	282.625458	1015.824341	187.138351	281.444916	870.270935	576.708923	312.379425	786.881104	570.978394	302.489716	703.633545	556.352722	348.470093	792.375854	566.401550	297.029541	577.479553	524.527527	328.392212	556.934998	418.249146	242.719635	412.657410	552.579773	253.862289	323.552765	547.875488	218.451233	243.239044	542.299194	287.987213	320.206512	530.466980	208.743179	104.044113	531.149292	248.733368	122.024086	450.148621	165.155289	56.073746	483.448425	468.469391	91.147224	503.533630	353.454865	43.342758	563.468689	378.667633	81.338005	454.098145	293.683716	865.953918	174.430527	317.170074	782.872253	182.089813	353.208313	784.956543	184.217926	295.782043	698.234802	195.721054	309.849518	577.224182	221.206467	331.240692	559.212952	334.489868	250.985397	413.426849	184.697601	263.716187	329.311768	193.174240	229.008911	244.665176	196.571091	298.034027	325.279999	211.389359	220.594406	110.751831	206.054855	259.068359	124.908173	292.799194	172.514450	55.060497	258.051392	479.420441	92.562614	234.360977	389.108521	73.326363	285.959106	358.212799	50.648468	172.423203	
1503	7.5150	261.105316	1571.361328	581.903809	255.874603	1587.401978	201.641861	195.066238	1608.124023	394.967285	360.702759	1554.744263	393.230835	186.034698	1299.832642	689.705139	279.681488	1119.658569	885.090820	181.420990	1315.530396	98.229050	262.174133	1123.772095	-106.462189	158.424133	1067.183838	374.033295	293.610535	1164.869995	194.610397	285.125977	1150.876343	566.785034	356.450531	1103.789551	237.383087	356.106873	1100.010132	520.663452	159.593430	1107.936768	423.690613	163.854965	1116.170776	340.774811	267.984680	1008.870117	561.468872	282.641693	1015.826660	187.150497	281.457550	870.259705	576.683289	312.390259	786.892273	570.987671	302.488739	703.639771	556.351013	348.490509	792.379150	566.412048	297.031799	577.479553	524.528137	328.434418	556.924805	418.264862	242.723633	412.647766	552.583008	253.868622	323.569183	547.886292	218.462479	243.234772	542.296997	287.968475	320.216858	530.485596	208.747940	104.044617	531.141418	248.734344	122.024521	450.148773	165.155289	56.073738	483.448425	468.450836	91.152527	503.535309	353.442719	43.343548	563.459534	378.663116	81.333885	454.096558	293.700012	865.949341	174.454437	317.206329	782.901978	182.085449	353.226898	784.962280	184.214142	295.788971	698.231628	195.722000	309.843201	577.222961	221.203674	331.285065	559.236023	334.523254	251.017441	413.424866	184.707184	263.727112	329.305450	193.182220	229.000687	244.686859	196.575928	298.030060	325.282379	211.397247	220.596619	110.747261	206.059158	259.058594	124.900482	292.792175	172.524658	55.059589	258.042847	479.396210	92.555038	234.349304	389.107666	73.303162	285.961945	358.212769	50.648487	172.415070	
1504	7.5200	261.106903	1571.350342	581.908081	255.882584	1587.406128	201.662674	195.086349	1608.124268	394.975403	360.710846	1554.743530	393.241058	186.009369	1299.823242	689.704590	279.634338	1119.654907	885.083801	181.438034	1315.541138	98.229729	262.177704	1123.803589	-106.484528	158.435715	1067.185059	374.050690	293.609131	1164.878906	194.615585	285.123932	1150.881104	566.812439	356.458466	1103.784180	237.406433	356.133575	1100.002319	520.673706	159.584488	1107.948608	423.701569	163.841400	1116.180054	340.799408	267.997437	1008.864746	561.481567	282.647461	1015.816895	187.158920	281.508514	870.311584	576.692688	312.392548	786.893005	570.990784	302.515778	703.633667	556.362122	348.500214	792.399170	566.404358	297.049866	577.466553	524.538696	328.408356	556.923828	418.246918	242.730164	412.659698	552.588684	253.874557	323.564575	547.884766	218.467377	243.242874	542.300232	287.961060	320.205719	530.478455	208.741058	104.050690	531.138855	248.734375	122.021759	450.149017	165.157364	56.044563	483.453156	468.447845	91.144463	503.531250	353.455688	43.332073	563.451843	378.644196	81.321114	454.108124	293.708282	865.946289	174.461914	317.199615	782.894714	182.117905	353.235504	784.975403	184.238190	295.798889	698.224609	195.726837	309.892334	577.226013	221.217880	331.289520	559.231567	334.512970	251.019897	413.416534	184.712784	263.749390	329.315643	193.188278	228.990982	244.690155	196.562698	298.041260	325.290192	211.379547	220.615372	110.734779	206.054031	259.058807	124.901237	292.792297	172.531326	55.051647	258.041840	479.430450	92.554459	234.333694	389.109039	73.302948	285.962830	358.221069	50.660198	172.432465	
1505	7.5250	261.118866	1571.348389	581.914001	255.893234	1587.413696	201.682159	195.106461	1608.124512	394.983551	360.723907	1554.733765	393.233582	186.009323	1299.811157	689.701965	279.608704	1119.640991	885.099182	181.434372	1315.559937	98.236221	262.173401	1123.820801	-106.476509	158.447220	1067.173828	374.071136	293.636017	1164.869385	194.630341	285.133087	1150.873901	566.830750	356.444855	1103.778076	237.394638	356.137024	1100.006348	520.690613	159.600754	1107.944214	423.696716	163.867844	1116.166016	340.805328	268.010071	1008.862854	561.484253	282.647919	1015.827637	187.172180	281.485962	870.234070	576.678650	312.404236	786.889587	571.001465	302.512451	703.629761	556.355896	348.513885	792.387573	566.413940	297.049225	577.474609	524.534424	328.429871	556.928894	418.250641	242.733948	412.655090	552.594910	253.892471	323.553223	547.880310	218.466766	243.230820	542.307617	287.979645	320.207581	530.499329	208.742737	104.036697	531.144348	248.753906	122.021477	450.161621	165.151749	56.063004	483.452240	468.442719	91.167862	503.537506	353.446320	43.341572	563.458679	378.646393	81.332748	454.102844	293.727844	865.943787	174.465164	317.222839	782.887634	182.112549	353.253448	784.981445	184.244415	295.818939	698.232178	195.754440	309.884918	577.231506	221.211929	331.289520	559.231567	334.512939	251.028549	413.413513	184.711182	263.749420	329.315643	193.188309	229.017914	244.682175	196.572998	298.037476	325.281311	211.384735	220.593765	110.742172	206.060471	259.070068	124.907196	292.797272	172.525146	55.076176	258.042694	479.400452	92.567230	234.358734	389.106476	73.311798	285.963257	358.213928	50.647636	172.413589	
1506	7.5300	261.118896	1571.330811	581.926819	255.907349	1587.425049	201.699432	195.130692	1608.120239	394.964050	360.728821	1554.711670	393.267548	185.988831	1299.815308	689.717590	279.579102	1119.640747	885.106689	181.438095	1315.567505	98.242561	262.171356	1123.836426	-106.472939	158.447235	1067.173828	374.071136	293.609100	1164.868408	194.633392	285.161255	1150.883789	566.834412	356.475433	1103.783813	237.408066	356.150909	1100.006470	520.692139	159.603989	1107.942383	423.717621	163.868408	1116.165894	340.825806	268.027344	1008.854126	561.501282	282.652374	1015.832214	187.175995	281.498596	870.237488	576.682434	312.425690	786.879578	570.995361	302.543030	703.615234	556.370056	348.525024	792.381104	566.414062	297.077057	577.464539	524.548828	328.419495	556.920166	418.269806	242.733109	412.655396	552.598083	253.866287	323.548889	547.895020	218.456711	243.243576	542.299805	287.990387	320.206360	530.490051	208.726868	104.027237	531.137268	248.755676	122.031502	450.148560	165.151749	56.063000	483.452240	468.447083	91.144890	503.531464	353.434174	43.346542	563.451416	378.641998	81.336327	454.103424	293.736694	865.960083	174.474716	317.225769	782.876038	182.122253	353.261078	784.980042	184.254303	295.838226	698.222229	195.756119	309.903564	577.214539	221.227463	331.283600	559.221741	334.501404	251.043518	413.415955	184.725525	263.753479	329.318726	193.182571	229.035934	244.678467	196.589310	298.048431	325.285828	211.396698	220.595352	110.750977	206.065002	259.061768	124.904999	292.794800	172.538635	55.064732	258.036926	479.463959	92.524788	234.378464	389.111145	73.328575	285.964050	358.212921	50.648506	172.423141	
